<svg xmlns="http://www.w3.org/2000/svg" version="1.1" xmlns:xlink="http://www.w3.org/1999/xlink" xmlns:svgjs="http://svgjs.dev/svgjs" width="1500" height="1500" viewBox="0 0 1500 1500"><rect width="1500" height="1500" fill="#ffffff"></rect><g transform="matrix(0.6666666666666666,0,0,0.6666666666666666,249.39393939393938,478.42500398694887)"><svg viewBox="0 0 396 215" data-background-color="#ffffff" preserveAspectRatio="xMidYMid meet" height="814" width="1500" xmlns="http://www.w3.org/2000/svg" xmlns:xlink="http://www.w3.org/1999/xlink"><g id="tight-bounds" transform="matrix(1,0,0,1,0.2400000000000091,0.09574473490053492)"><svg viewBox="0 0 395.52 214.80851053019893" height="214.80851053019893" width="395.52"><g><svg viewBox="0 0 395.52 214.80851053019893" height="214.80851053019893" width="395.52"><g transform="matrix(1,0,0,1,0,154.01429714864378)"><svg viewBox="0 0 395.52 60.79421338155516" height="60.79421338155516" width="395.52"><g id="textblocktransform"><svg viewBox="0 0 395.52 60.79421338155516" height="60.79421338155516" width="395.52" id="textblock"><g><svg viewBox="0 0 395.52 60.79421338155516" height="60.79421338155516" width="395.52"><g transform="matrix(1,0,0,1,0,0)"><svg width="395.52" viewBox="4.15 -35.1 304.12 46.75" height="60.79421338155516" data-palette-color="#336a86"><path d="M28.05-3.15Q28.4-2.5 28.4-1.9L28.4-1.9Q28.4-0.75 27.45-0.03 26.5 0.7 25.2 0.7L25.2 0.7Q21.95 0.7 20.35-4.25L20.35-4.25 18.25-10.9Q17.6-12.6 16.85-13.7 16.1-14.8 14.48-15.53 12.85-16.25 10.1-16.25L10.1-16.25 8.85-16.25 8.85-5.7Q8.85-2.05 9.5-0.35L9.5-0.35Q8.45 0.55 7.15 0.55L7.15 0.55Q6.15 0.55 5.5-0.05 4.85-0.65 4.85-1.65L4.85-1.65 4.8-28.85Q4.8-32.3 4.15-34.2L4.15-34.2Q5.2-35.1 6.5-35.1L6.5-35.1Q7.55-35.1 8.18-34.52 8.8-33.95 8.8-32.9L8.8-32.9 8.85-18.1 10.25-18.25Q13.55-18.65 15.93-20.63 18.3-22.6 19.53-25.35 20.75-28.1 20.75-30.7L20.75-30.7Q20.75-33.1 19.85-34.5L19.85-34.5Q20.75-35.1 21.7-35.1L21.7-35.1Q22.9-35.1 23.8-34.08 24.7-33.05 24.7-30.7L24.7-30.7Q24.7-26.75 22.25-23.1 19.8-19.45 14.85-17.6L14.85-17.6Q17.75-17.15 19.38-15.75 21-14.35 21.9-11.95L21.9-11.95 24.25-5.25Q24.9-3.75 25.4-3.18 25.9-2.6 26.65-2.55L26.65-2.55 26.8-2.55Q27.5-2.55 28.05-3.15L28.05-3.15ZM51.6-6.45Q52.35-6.2 52.35-5.3L52.35-5.3Q52.35-4.8 52.05-3.95L52.05-3.95Q51.1-1.75 48.72-0.55 46.35 0.65 43.15 0.65L43.15 0.65Q37.65 0.65 34.55-2.78 31.45-6.2 31.45-12.55L31.45-12.55Q31.45-18.85 34.52-22.45 37.6-26.05 43.35-26.05L43.35-26.05Q47.5-26.05 50-24.18 52.5-22.3 52.5-18.85L52.5-18.85Q52.5-15.15 49.5-13.2 46.5-11.25 41.15-11.25L41.15-11.25Q38.2-11.25 35.75-11.6L35.75-11.6Q36.05-6.55 38.27-4.33 40.5-2.1 44.1-2.1L44.1-2.1Q46.85-2.1 48.85-3.23 50.85-4.35 51.6-6.45L51.6-6.45ZM43.2-24.25Q39.8-24.25 37.77-21.43 35.75-18.6 35.7-13.3L35.7-13.3Q38.1-13.1 39.6-13.05L39.6-13.05Q43.6-13.05 45.92-14.48 48.25-15.9 48.25-19.35L48.25-19.35Q48.25-22 46.8-23.13 45.35-24.25 43.2-24.25L43.2-24.25ZM79.65-5.7Q79.75-1.9 80.3-0.35L80.3-0.35Q79.3 0.55 78 0.55L78 0.55Q76.95 0.55 76.3-0.05 75.65-0.65 75.65-1.65L75.65-1.65 75.65-15.15Q75.59-19.5 74.42-21.6 73.25-23.7 70.45-23.7L70.45-23.7Q68.7-23.7 67.07-22.5 65.45-21.3 64.4-18.7 63.34-16.1 63.34-12.05L63.34-12.05Q63.34-5.6 63.45-3.65 63.55-1.7 64.05-0.35L64.05-0.35Q63 0.55 61.75 0.55L61.75 0.55Q60.7 0.55 60.05-0.1 59.4-0.75 59.4-1.85L59.4-1.85 59.4-20.3Q59.34-21.7 59.02-22.3 58.7-22.9 58-22.9L58-22.9Q57.05-22.9 56.7-22.1L56.7-22.1Q56.09-22.95 56.09-23.7L56.09-23.7Q56.09-24.75 56.9-25.38 57.7-26 59.09-26L59.09-26Q61-26 62-24.7 63-23.4 63-20.85L63-20.85 63-19.85Q64.05-22.8 66.3-24.43 68.55-26.05 71.59-26.05L71.59-26.05Q79.65-26.05 79.65-15.65L79.65-15.65 79.65-5.7ZM108.34-5.7Q108.44-1.9 108.99-0.35L108.99-0.35Q107.99 0.55 106.69 0.55L106.69 0.55Q105.64 0.55 104.99-0.05 104.34-0.65 104.34-1.65L104.34-1.65 104.34-15.15Q104.29-19.5 103.12-21.6 101.94-23.7 99.14-23.7L99.14-23.7Q97.39-23.7 95.77-22.5 94.14-21.3 93.09-18.7 92.04-16.1 92.04-12.05L92.04-12.05Q92.04-5.6 92.14-3.65 92.24-1.7 92.74-0.35L92.74-0.35Q91.69 0.55 90.44 0.55L90.44 0.55Q89.39 0.55 88.74-0.1 88.09-0.75 88.09-1.85L88.09-1.85 88.09-20.3Q88.04-21.7 87.72-22.3 87.39-22.9 86.69-22.9L86.69-22.9Q85.74-22.9 85.39-22.1L85.39-22.1Q84.79-22.95 84.79-23.7L84.79-23.7Q84.79-24.75 85.59-25.38 86.39-26 87.79-26L87.79-26Q89.69-26 90.69-24.7 91.69-23.4 91.69-20.85L91.69-20.85 91.69-19.85Q92.74-22.8 94.99-24.43 97.24-26.05 100.29-26.05L100.29-26.05Q108.34-26.05 108.34-15.65L108.34-15.65 108.34-5.7ZM135.89-23.65L135.94-2.45Q135.94 11.65 124.19 11.65L124.19 11.65Q120.59 11.65 118.12 10.35 115.64 9.05 115.64 6.25L115.64 6.25Q115.64 4.85 116.47 3.9 117.29 2.95 118.64 2.95L118.64 2.95Q119.99 2.95 120.59 3.7L120.59 3.7Q119.94 4.1 119.64 4.78 119.34 5.45 119.34 6.05L119.34 6.05Q119.34 8 120.77 8.97 122.19 9.95 124.19 9.95L124.19 9.95Q128.29 9.95 130.24 6.85 132.19 3.75 132.19-2.4L132.19-2.4Q132.19-4.05 132.34-6L132.34-6Q131.29-2.95 129.09-1.25 126.89 0.45 123.69 0.45L123.69 0.45Q119.84 0.45 117.99-1.98 116.14-4.4 116.09-10.05L116.09-10.05 116.09-19.75Q116.09-23.2 115.44-25.15L115.44-25.15Q116.54-26.05 117.79-26.05L117.79-26.05Q118.79-26.05 119.42-25.45 120.04-24.85 120.04-23.8L120.04-23.8 120.09-10.55Q120.09-5.95 121.17-3.88 122.24-1.8 124.74-1.8L124.74-1.8Q127.79-1.8 129.89-4.73 131.99-7.65 131.99-13.7L131.99-13.7Q131.99-20 131.89-21.9 131.79-23.8 131.29-25.15L131.29-25.15Q132.34-26.05 133.59-26.05L133.59-26.05Q134.59-26.05 135.24-25.4 135.89-24.75 135.89-23.65L135.89-23.65ZM188.24-5.7Q188.24-2.1 188.84-0.35L188.84-0.35Q187.79 0.55 186.49 0.55L186.49 0.55Q185.54 0.55 184.94-0.05 184.34-0.65 184.34-1.65L184.34-1.65 184.24-29.8 173.29-5.45Q172.09-5 171.09-5L171.09-5Q170.19-5 169.49-5.35L169.49-5.35Q163.84-16.05 157.69-29.65L157.69-29.65 157.74-5.7Q157.74-1.95 158.39-0.05L158.39-0.05Q157.69 0.55 156.74 0.55L156.74 0.55Q155.29 0.55 155.29-1.3L155.29-1.3 155.24-28.95Q155.24-32.5 154.94-34.5L154.94-34.5Q155.54-35.1 157.59-35.1L157.59-35.1Q158.94-35.1 159.69-34.3L159.69-34.3 163.84-25.55 171.89-8.85Q172.89-11.05 178.84-24.6L178.84-24.6Q180.34-28.15 181.44-30.65 182.54-33.15 183.24-34.7L183.24-34.7Q184.29-35.1 185.69-35.1L185.69-35.1Q186.64-35.1 187.36-34.75 188.09-34.4 188.14-33.9L188.14-33.9 188.24-5.7ZM206.63 0.65Q201.23 0.65 198.21-2.88 195.18-6.4 195.18-12.7L195.18-12.7Q195.18-19 198.21-22.53 201.23-26.05 206.63-26.05L206.63-26.05Q212.08-26.05 215.11-22.53 218.13-19 218.13-12.7L218.13-12.7Q218.13-6.4 215.11-2.88 212.08 0.65 206.63 0.65L206.63 0.65ZM206.63-1.15Q210.13-1.15 211.98-4.13 213.83-7.1 213.83-12.7L213.83-12.7Q213.83-18.3 211.98-21.25 210.13-24.2 206.63-24.2L206.63-24.2Q203.13-24.2 201.28-21.25 199.43-18.3 199.43-12.7L199.43-12.7Q199.43-7.1 201.28-4.13 203.13-1.15 206.63-1.15L206.63-1.15ZM231.13-25.35Q231.93-25.35 233.26-25.4 234.58-25.45 235.38-25.5L235.38-25.5 235.33-24.4Q235.28-23.9 234.98-23.58 234.68-23.25 234.23-23.25L234.23-23.25 229.08-23.25 229.08-21.35 229.08-5.25Q229.08-3.95 229.68-3.25 230.28-2.55 231.48-2.55L231.48-2.55Q232.23-2.55 232.91-2.83 233.58-3.1 233.83-3.6L233.83-3.6Q234.38-2.85 234.38-2L234.38-2Q234.38-0.85 233.18-0.15 231.98 0.55 230.13 0.55L230.13 0.55Q227.78 0.55 226.43-0.93 225.08-2.4 225.08-5L225.08-5 225.08-23.25 224.38-23.25Q222.33-23.25 221.38-23.1L221.38-23.1 221.43-24.25Q221.48-25.35 222.53-25.35L222.53-25.35 225.08-25.35 225.08-29.8Q225.08-30.85 225.73-31.43 226.38-32 227.43-32L227.43-32Q228.68-32 229.73-31.1L229.73-31.1Q229.18-29.4 229.13-25.35L229.13-25.35 231.13-25.35ZM250.93 0.65Q245.53 0.65 242.5-2.88 239.48-6.4 239.48-12.7L239.48-12.7Q239.48-19 242.5-22.53 245.53-26.05 250.93-26.05L250.93-26.05Q256.38-26.05 259.4-22.53 262.43-19 262.43-12.7L262.43-12.7Q262.43-6.4 259.4-2.88 256.38 0.65 250.93 0.65L250.93 0.65ZM250.93-1.15Q254.43-1.15 256.28-4.13 258.13-7.1 258.13-12.7L258.13-12.7Q258.13-18.3 256.28-21.25 254.43-24.2 250.93-24.2L250.93-24.2Q247.43-24.2 245.58-21.25 243.73-18.3 243.73-12.7L243.73-12.7Q243.73-7.1 245.58-4.13 247.43-1.15 250.93-1.15L250.93-1.15ZM279.43-26.05Q282.02-26.05 283.6-24.68 285.18-23.3 285.18-20.85L285.18-20.85Q285.18-19.2 284.23-18.13 283.27-17.05 281.98-17.05L281.98-17.05Q280.88-17.05 280.48-17.55L280.48-17.55Q281.02-18.4 281.23-19.13 281.43-19.85 281.43-20.75L281.43-20.75Q281.43-23.85 278.52-23.85L278.52-23.85Q276.27-23.85 274.75-20.98 273.23-18.1 273.23-12.05L273.23-12.05 273.23-9.35Q273.23-4.85 273.32-3.25 273.43-1.65 273.88-0.45L273.88-0.45Q272.82 0.45 271.52 0.45L271.52 0.45Q270.52 0.45 269.88-0.18 269.23-0.8 269.23-1.9L269.23-1.9 269.23-20.3Q269.23-21.7 268.9-22.3 268.57-22.9 267.82-22.9L267.82-22.9Q266.88-22.9 266.52-22.1L266.52-22.1Q265.93-22.95 265.93-23.7L265.93-23.7Q265.93-24.75 266.73-25.38 267.52-26 268.93-26L268.93-26Q270.88-26 271.85-24.63 272.82-23.25 272.77-20.55L272.77-20.55 272.77-20.3Q273.63-23.15 275.32-24.6 277.02-26.05 279.43-26.05L279.43-26.05ZM297.87 0.65Q293.22 0.65 290.9-1.03 288.57-2.7 288.57-5.4L288.57-5.4Q288.57-6.65 289.17-7.43 289.77-8.2 291.07-8.2L291.07-8.2Q291.57-8.2 291.87-8.15L291.87-8.15Q291.72-7.55 291.72-6.95L291.72-6.95Q291.72-6.4 291.77-6.05L291.77-6.05Q291.87-3.85 293.6-2.55 295.32-1.25 298.22-1.25L298.22-1.25Q301.07-1.25 302.77-2.25 304.47-3.25 304.47-5.2L304.47-5.2Q304.47-7 303.17-8.05 301.87-9.1 299.07-10.35L299.07-10.35 297.47-11.1Q294.67-12.4 293.2-13.3 291.72-14.2 290.65-15.75 289.57-17.3 289.57-19.65L289.57-19.65Q289.57-22.9 292.12-24.5 294.67-26.1 298.57-26.1L298.57-26.1Q302.67-26.1 304.97-24.78 307.27-23.45 307.27-21.1L307.27-21.1Q307.27-19 305.42-18.8L305.42-18.8Q304.92-18.7 304.77-18.7L304.77-18.7Q304.47-18.7 303.97-18.8L303.97-18.8Q304.07-19.4 304.07-19.8L304.07-19.8Q304.07-20.45 303.92-20.9L303.92-20.9Q303.72-22.55 302.3-23.4 300.87-24.25 298.42-24.25L298.42-24.25Q296.17-24.25 294.72-23.43 293.27-22.6 293.27-20.8L293.27-20.8Q293.27-19.3 294.12-18.23 294.97-17.15 296.15-16.48 297.32-15.8 299.72-14.65L299.72-14.65 300.82-14.15Q303.27-13 304.75-12.13 306.22-11.25 307.25-9.85 308.27-8.45 308.27-6.5L308.27-6.5Q308.27-3.55 305.82-1.45 303.37 0.65 297.87 0.65L297.87 0.65Z" opacity="1" transform="matrix(1,0,0,1,0,0)" fill="#000000" class="wordmark-text-0" data-fill-palette-color="primary" id="text-0"></path></svg></g></svg></g></svg></g></svg></g><g transform="matrix(1,0,0,1,127.92887878481011,0)"><svg viewBox="0 0 139.66224243037976 139.66224243037976" height="139.66224243037976" width="139.66224243037976"><g><svg></svg></g><g id="icon-0"><svg viewBox="0 0 139.66224243037976 139.66224243037976" height="139.66224243037976" width="139.66224243037976"><g><rect width="126.98918709873418" height="126.98918709873418" x="6.336527665822793" y="6.336527665822793" fill="#000000" data-fill-palette-color="accent"></rect><rect width="126.98918709873418" height="126.98918709873418" x="8.881784197001252e-15" y="12.673055331645577" fill="#000000" opacity="0.5" data-fill-palette-color="accent"></rect></g><g transform="matrix(1,0,0,1,18.104364759493677,20.051527104776817)"><svg viewBox="0 0 103.45351291139241 99.55918822082613" height="99.55918822082613" width="103.45351291139241"><g><svg xmlns="http://www.w3.org/2000/svg" xmlns:xlink="http://www.w3.org/1999/xlink" version="1.1" x="0" y="0" viewBox="2.368999999999999 4.054997502759444 95.97999999999999 92.36700249724056" enable-background="new 0 0 100 100" xml:space="preserve" height="99.55918822082613" width="103.45351291139241" class="icon-cg-0" data-fill-palette-color="quaternary" id="cg-0"><g fill="#ffffff" data-fill-palette-color="quaternary"><path d="M7.64 53.797c-0.161 3.22 3.638 6.621 8.485 7.597 4.847 0.976 8.907-0.844 9.068-4.062 0.161-3.22-3.638-6.62-8.486-7.597C11.861 48.758 7.801 50.577 7.64 53.797L7.64 53.797zM50.188 8.238C39.25 8.307 26.5 8.702 16.032 11.218c-0.929 0.177-1.038 1.155-1.038 1.155l-0.896 23.804c-0.077 4.128 4.638 6.004 36.09 6.104 31.451-0.1 36.166-1.977 36.09-6.104l-0.896-23.804c0 0-0.107-0.978-1.037-1.155C73.877 8.702 61.125 8.307 50.188 8.238L50.188 8.238zM92.735 53.797c-0.16-3.22-4.22-5.039-9.067-4.062-4.847 0.977-8.646 4.377-8.485 7.597 0.161 3.219 4.22 5.038 9.068 4.062C89.099 60.418 92.897 57.017 92.735 53.797L92.735 53.797zM50.359 87.624l-2.874-0.002c-10.683-0.043-21.162-0.246-29.878-0.89v4.863c0 2.667-2.161 4.827-4.827 4.827h-3.97c-2.666 0-4.827-2.16-4.827-4.827V81.441c-0.104-0.904-0.213-1.944-0.32-3.105-0.82-4.258-1.294-9.287-1.294-14.677 0-6.836 0.762-13.094 2.026-17.929 0.251-1.102 0.555-2.084 0.899-2.96 0.107-0.301 0.215-0.593 0.326-0.878l4.802-32.865c0 0 0.194-1.369 1.419-1.676 11.021-2.999 37.596-3.297 38.517-3.296 0.921-0.001 27.496 0.297 38.519 3.296 1.226 0.307 1.419 1.676 1.419 1.676L95.1 41.892c0.109 0.285 0.219 0.577 0.324 0.878 0.345 0.876 0.648 1.858 0.899 2.96 1.264 4.835 2.026 11.093 2.026 17.929 0 5.39-0.475 10.419-1.294 14.677-0.106 1.161-0.216 2.201-0.319 3.105v10.154c0 2.667-2.161 4.827-4.828 4.827h-3.969c-2.665 0-4.828-2.16-4.828-4.827v-4.863c-8.716 0.644-19.195 0.847-29.877 0.89L50.359 87.624 50.359 87.624z" fill="#ffffff" data-fill-palette-color="quaternary"></path></g></svg></g></svg></g></svg></g></svg></g><g></g></svg></g><defs></defs></svg><rect width="395.52" height="214.80851053019893" fill="none" stroke="none" visibility="hidden"></rect></g></svg></g></svg>