<svg xmlns="http://www.w3.org/2000/svg" version="1.1" xmlns:xlink="http://www.w3.org/1999/xlink" xmlns:svgjs="http://svgjs.dev/svgjs" width="1500" height="1500" viewBox="0 0 1500 1500"><rect width="1500" height="1500" fill="#5a9fd9"></rect><g transform="matrix(0.6666666666666666,0,0,0.6666666666666666,249.39393939393938,542.9404231669837)"><svg viewBox="0 0 396 164" data-background-color="#5a9fd9" preserveAspectRatio="xMidYMid meet" height="621" width="1500" xmlns="http://www.w3.org/2000/svg" xmlns:xlink="http://www.w3.org/1999/xlink"><g id="tight-bounds" transform="matrix(1,0,0,1,0.2400000000000091,0.023600484576491)"><svg viewBox="0 0 395.52 163.95279903084702" height="163.95279903084702" width="395.52"><g><svg viewBox="0 0 395.52 163.95279903084702" height="163.95279903084702" width="395.52"><g transform="matrix(1,0,0,1,0,101.32940726114781)"><svg viewBox="0 0 395.52 62.623391769699204" height="62.623391769699204" width="395.52"><g id="textblocktransform"><svg viewBox="0 0 395.52 62.623391769699204" height="62.623391769699204" width="395.52" id="textblock"><g><svg viewBox="0 0 395.52 62.623391769699204" height="62.623391769699204" width="395.52"><g transform="matrix(1,0,0,1,0,0)"><svg width="395.52" viewBox="1.75 -31.5 270.92 42.9" height="62.623391769699204" data-palette-color="#000000"><path d="M4.8-1.6L4.8-1.6 4.8-30Q4.8-30.6 4.1-30.6L4.1-30.6 1.75-30.6 1.75-31.5 11.95-31.5 11.95-30.6 9.6-30.6Q8.9-30.6 8.9-30L8.9-30 8.9-1.6Q8.9-0.9 9.6-0.9L9.6-0.9 11.95-0.9 11.95 0 1.75 0 1.75-0.9 4.1-0.9Q4.8-0.9 4.8-1.6ZM20.6-8.75L20.6-8.75 21.75-4.15Q22.5-1.05 24.15-1.05L24.15-1.05Q25-1.05 25.48-1.68 25.95-2.3 25.95-3.18 25.95-4.05 25.8-4.8L25.8-4.8 26.75-4.95Q26.95-4.2 26.95-3.3L26.95-3.3Q26.95-1.5 25.88-0.45 24.8 0.6 23.1 0.6L23.1 0.6Q18.9 0.6 17.6-4.75L17.6-4.75 16.45-9.35Q15.6-12.6 14.1-13.88 12.6-15.15 9.85-15.15L9.85-15.15 9.85-16.25 21.65-30.6 19.15-30.6 19.15-31.5 25.95-31.5 25.95-30.6 24.6-30.6Q23.8-30.6 23.2-29.9L23.2-29.9 12-16.35Q15.85-16.3 17.8-14.25 19.75-12.2 20.6-8.75ZM38.05-22.2L38.05-22.2Q41.5-22.2 43.5-19.9 45.5-17.6 45.5-13.15L45.5-13.15Q45.5-12.25 45.4-11.15L45.4-11.15 31.75-11.15 31.75-10.8Q31.75-6.05 33.47-3.33 35.2-0.6 37.92-0.6 40.65-0.6 42.4-2 44.15-3.4 44.8-6L44.8-6 45.75-5.8Q45.15-2.75 43-1.07 40.85 0.6 38.05 0.6L38.05 0.6Q33.7 0.6 30.82-2.45 27.95-5.5 27.95-10.78 27.95-16.05 30.85-19.13 33.75-22.2 38.05-22.2ZM42.05-14.85L42.05-14.85Q42.05-21 37.45-21L37.45-21Q35.15-21 33.52-18.5 31.9-16 31.8-12.15L31.8-12.15 41.85-12.15Q42.05-13.85 42.05-14.85ZM70.59-14.6L70.59-14.6 70.59-1.5Q70.59-0.9 71.3-0.9L71.3-0.9 73.65-0.9 73.65 0 64.65 0 64.65-0.9 66.3-0.9Q67-0.9 67-1.5L67-1.5 67-15.25Q67-17.8 65.87-19.03 64.75-20.25 62.9-20.25L62.9-20.25Q60.3-20.25 58.6-17.18 56.9-14.1 56.9-8.35L56.9-8.35 56.9-1.6Q56.9-0.9 57.6-0.9L57.6-0.9 59.25-0.9 59.25 0 50.25 0 50.25-0.9 52.6-0.9Q53.3-0.9 53.3-1.5L53.3-1.5 53.3-20Q53.3-20.7 52.6-20.7L52.6-20.7 50.25-20.7 50.25-21.6 52.7-21.6Q55.7-21.6 56.9-21.9L56.9-21.9 56.9-15.1Q58.6-22.2 64.4-22.2L64.4-22.2Q67-22.2 68.8-20.33 70.59-18.45 70.59-14.6ZM97.99-14.6L97.99-14.6 97.99-1.5Q97.99-0.9 98.69-0.9L98.69-0.9 101.04-0.9 101.04 0 92.04 0 92.04-0.9 93.69-0.9Q94.39-0.9 94.39-1.5L94.39-1.5 94.39-15.25Q94.39-17.8 93.27-19.03 92.14-20.25 90.29-20.25L90.29-20.25Q87.69-20.25 85.99-17.18 84.29-14.1 84.29-8.35L84.29-8.35 84.29-1.6Q84.29-0.9 84.99-0.9L84.99-0.9 86.64-0.9 86.64 0 77.64 0 77.64-0.9 79.99-0.9Q80.69-0.9 80.69-1.5L80.69-1.5 80.69-20Q80.69-20.7 79.99-20.7L79.99-20.7 77.64-20.7 77.64-21.6 80.09-21.6Q83.09-21.6 84.29-21.9L84.29-21.9 84.29-15.1Q85.99-22.2 91.79-22.2L91.79-22.2Q94.39-22.2 96.19-20.33 97.99-18.45 97.99-14.6ZM117.29-20.7L117.29-21.6 123.64-21.6 123.64-20.7 121.79-20.7Q121.34-20.7 121.09-20L121.09-20 112.44 3.15Q112.29 3.6 111.94 4.5L111.94 4.5 111.39 5.85Q111.24 6.3 110.94 7.08 110.64 7.85 110.44 8.28 110.24 8.7 109.94 9.3L109.94 9.3Q109.59 10.05 108.94 10.73 108.29 11.4 107.59 11.4 106.89 11.4 106.12 10.53 105.34 9.65 105.19 8.65L105.19 8.65Q109.74 6.7 111.39 2.15L111.39 2.15 112.24-0.15 104.84-20Q104.59-20.7 104.14-20.7L104.14-20.7 102.29-20.7 102.29-21.6 110.79-21.6 110.79-20.7 108.29-20.7 114.04-4.9 119.84-20.7 117.29-20.7ZM171.89 0L161.69 0 161.69-0.9 164.04-0.9Q164.74-0.9 164.74-1.5L164.74-1.5 164.74-27.05 154.29 0 152.59 0 142.14-26.3 142.14-1.6Q142.14-0.9 142.84-0.9L142.84-0.9 145.19-0.9 145.19 0 137.39 0 137.39-0.9 139.74-0.9Q140.44-0.9 140.44-1.6L140.44-1.6 140.44-30Q140.44-30.6 139.74-30.6L139.74-30.6 137.39-30.6 137.39-31.5 144.54-31.5 154.74-5.65 164.74-31.5 171.89-31.5 171.89-30.6 169.54-30.6Q168.84-30.6 168.84-29.9L168.84-29.9 168.84-1.5Q168.84-0.9 169.54-0.9L169.54-0.9 171.89-0.9 171.89 0ZM178.43-2.45Q175.63-5.5 175.63-10.8 175.63-16.1 178.43-19.15 181.23-22.2 185.73-22.2 190.23-22.2 193.06-19.15 195.88-16.1 195.88-10.8 195.88-5.5 193.06-2.45 190.23 0.6 185.73 0.6 181.23 0.6 178.43-2.45ZM181.23-18.32Q179.43-15.55 179.43-10.8 179.43-6.05 181.23-3.28 183.03-0.5 185.73-0.5 188.43-0.5 190.26-3.28 192.08-6.05 192.08-10.8 192.08-15.55 190.26-18.32 188.43-21.1 185.73-21.1 183.03-21.1 181.23-18.32ZM204.78-26.9L204.78-26.9 205.53-26.9 205.53-21.6 210.53-21.6 210.53-20.7 205.53-20.7 205.53-3.75Q205.53-1.05 207.03-1.05L207.03-1.05Q207.73-1.05 208.26-1.7 208.78-2.35 208.78-3.2 208.78-4.05 208.63-4.8L208.63-4.8 209.58-4.95Q209.78-4.2 209.78-3.3L209.78-3.3Q209.78-1.5 208.71-0.45 207.63 0.6 205.88 0.6 204.13 0.6 203.03-0.83 201.93-2.25 201.93-5.1L201.93-5.1 201.93-20Q201.93-20.7 201.23-20.7L201.23-20.7 198.88-20.7 198.88-21.6 201.33-21.6Q202.93-21.6 204.78-26.9ZM216.33-2.45Q213.53-5.5 213.53-10.8 213.53-16.1 216.33-19.15 219.13-22.2 223.63-22.2 228.13-22.2 230.95-19.15 233.78-16.1 233.78-10.8 233.78-5.5 230.95-2.45 228.13 0.6 223.63 0.6 219.13 0.6 216.33-2.45ZM219.13-18.32Q217.33-15.55 217.33-10.8 217.33-6.05 219.13-3.28 220.93-0.5 223.63-0.5 226.33-0.5 228.15-3.28 229.98-6.05 229.98-10.8 229.98-15.55 228.15-18.32 226.33-21.1 223.63-21.1 220.93-21.1 219.13-18.32ZM250.53-22.2Q252.48-22.2 253.7-20.55 254.93-18.9 254.93-16.4 254.93-13.9 252.88-13.9L252.88-13.9Q251.68-13.9 250.93-14.65L250.93-14.65Q251.58-16.1 251.58-17.6L251.58-17.6Q251.58-20.25 249.38-20.25L249.38-20.25Q247.53-20.25 246.1-17.18 244.68-14.1 244.68-8.25L244.68-8.25 244.68-1.6Q244.68-0.9 245.38-0.9L245.38-0.9 248.73-0.9 248.73 0 238.03 0 238.03-0.9 240.38-0.9Q241.08-0.9 241.08-1.6L241.08-1.6 241.08-20Q241.08-20.7 240.38-20.7L240.38-20.7 238.03-20.7 238.03-21.6 240.48-21.6Q243.48-21.6 244.68-21.9L244.68-21.9 244.68-15.5Q245.48-18.95 247.03-20.58 248.58-22.2 250.53-22.2ZM263.67-13.55L263.67-13.55 268.87-11.6Q270.72-10.9 271.7-9.47 272.67-8.05 272.67-6.3L272.67-6.3Q272.67-3.6 270.52-1.5 268.37 0.6 264.75 0.6 261.12 0.6 257.92-0.75L257.92-0.75Q258.22-1.95 258.22-4.95L258.22-4.95 258.22-6.95 259.12-6.95 259.47-4.35Q259.92-0.6 264.72-0.6L264.72-0.6Q266.87-0.6 268.3-1.93 269.72-3.25 269.72-4.95L269.72-4.95Q269.72-7.3 266.87-8.35L266.87-8.35 261.67-10.3Q259.92-10.95 259.02-12.35 258.12-13.75 258.12-15.5L258.12-15.5Q258.12-18.15 260.02-20.18 261.92-22.2 264.8-22.2 267.67-22.2 271.27-20.85L271.27-20.85Q270.97-19.65 270.97-16.65L270.97-16.65 270.97-14.65 270.07-14.65 269.72-17.25Q269.32-20.85 265.17-20.85L265.17-20.85Q263.32-20.85 262.12-19.7 260.92-18.55 260.92-17L260.92-17Q260.92-14.6 263.67-13.55Z" opacity="1" transform="matrix(1,0,0,1,0,0)" fill="#000000" class="wordmark-text-0" data-fill-palette-color="primary" id="text-0"></path></svg></g></svg></g></svg></g></svg></g><g transform="matrix(1,0,0,1,88.15927751670036,0)"><svg viewBox="0 0 219.20144496659927 86.5455274257243" height="86.5455274257243" width="219.20144496659927"><g><svg xmlns="http://www.w3.org/2000/svg" xmlns:xlink="http://www.w3.org/1999/xlink" version="1.1" x="8" y="0" viewBox="0 0 100 42.591" enable-background="new 0 0 100 42.591" xml:space="preserve" width="203.20144496659927" height="86.5455274257243" class="icon-icon-0" data-fill-palette-color="accent" id="icon-0"><path d="M19.525 24.44c-5 0-9.069 4.075-9.069 9.089 0 4.986 4.069 9.062 9.069 9.062 5.013 0 9.088-4.076 9.088-9.062C28.613 28.515 24.538 24.44 19.525 24.44zM19.525 38.412c-2.676 0-4.876-2.201-4.876-4.883 0-2.695 2.201-4.896 4.876-4.896 2.695 0 4.889 2.201 4.889 4.896C24.414 36.21 22.22 38.412 19.525 38.412z" fill="#000000" data-fill-palette-color="accent"></path><path d="M80.632 24.44c-5.007 0-9.076 4.075-9.076 9.089 0 4.986 4.069 9.062 9.076 9.062 5.006 0 9.068-4.076 9.068-9.062C89.7 28.515 85.638 24.44 80.632 24.44zM80.632 38.412c-2.695 0-4.89-2.201-4.89-4.883 0-2.695 2.194-4.896 4.89-4.896s4.889 2.201 4.889 4.896C85.521 36.21 83.327 38.412 80.632 38.412z" fill="#000000" data-fill-palette-color="accent"></path><path d="M98.249 26.732c0-8.815-5.495-9.87-5.495-9.87-8.079-1.133-21.999-1.719-21.999-1.719C69.479 12.93 63.581 0 60.149 0c-1.158 0-25.781 0-30.143 0-4.368 0-11.523 12.604-13.092 15.456 0 0-5.482 0.938-8.066 1.537-1.432 0.325-5.41 0.403-5.41 11.51H0v5.026h8.366c0-6.172 5.007-11.172 11.159-11.172 6.178 0 11.172 5 11.172 11.172H69.46c0-6.172 4.986-11.172 11.172-11.172 6.165 0 11.165 5 11.165 11.172H100v-6.797H98.249zM44.746 14.284H27.344c2.35-7.331 6.712-12.565 8.555-12.565 2.311 0 8.848 0 8.848 0V14.284zM47.988 14.284V1.719c0 0 8.978 0 11.289 0 2.324 0 7.422 10.638 8.854 13.359L47.988 14.284z" fill="#000000" data-fill-palette-color="accent"></path></svg></g></svg></g><g><rect width="88.15927751670036" height="5.647442097131781" y="79.89808532859251" x="307.36072248329964" fill="#000000" data-fill-palette-color="accent"></rect><rect width="88.15927751670036" height="5.647442097131781" y="79.89808532859251" x="0" fill="#000000" data-fill-palette-color="accent"></rect><rect width="88.15927751670036" height="5.647442097131781" y="68.60320113432896" x="307.36072248329964" fill="#000000" data-fill-palette-color="accent"></rect><rect width="88.15927751670036" height="5.647442097131781" y="68.60320113432896" x="0" fill="#000000" data-fill-palette-color="accent"></rect></g></svg></g><defs></defs></svg><rect width="395.52" height="163.95279903084702" fill="none" stroke="none" visibility="hidden"></rect></g></svg></g></svg>